<svg xmlns="http://www.w3.org/2000/svg" viewBox="0 657.9 2834.6 834.7"><path d="M1325.1 938.4l92.2 92.2 92.2-92.2 92.2 92.2L1788 844.3 1602.1 658l-92.2 92.2-92.7-92.2-92.2 92.2-91.7-92.2L1047 844.3l186.3 186.3 91.8-92.2zm92.2 66.2l-79-79 79.4-79.4 79 79-79.4 79.4zm184.9-320.7l160.3 160.3-160.3 160.3-79.4-79.4 80.9-80.9-80.9-80.9 79.4-79.4zm-184.9 0l79.4 79.4-79 79-79.4-79.4 79-79zm-183.9 0l79 79-81.3 81.3 81.3 81.3-79 79L1073 844.3l160.4-160.4zM84.7 1268.9l-10.4-5.2c22.2 0 42.6-14.7 42.6-38.8s-13.7-38.8-43-38.8H10.4l-1.4 8.5 17.5 6.6v110.2l-17 6.6 1.4 8.5h53l1.4-8.5-17-6.6v-116.8h18c21.8 0 30.3 12.3 30.3 30.3 0 14.7-11.8 30.3-30.3 30.3h-9.5v8.5l33.6 54.9-1.4 8.5h38.3l1.4-8.5-17.5-6.6-26.5-43.1zM197.7 1225.9c-31.2 0-46.8 25.5-46.8 51.5s13.2 51.5 46.8 51.5 46.8-22.7 46.8-51.5-15.6-51.5-46.8-51.5zm0 96.5c-21.3 0-30.3-15.6-30.3-45.4 0-30.3 9.5-44 30.3-44s30.3 14.7 30.3 44c-.1 28.8-9 45.4-30.3 45.4zM369.3 1239.1l12.3-4.7-.9-6.1h-26.5l-31.2 83.2v-10.4l-24.6-72.8h-25.5l-1 6.1 12.3 4.7-8 77.1-12.3 4.8.9 5.6h28.4l1-5.6-12.3-4.8 7.5-68.5 27.5 81.3 7-2.4 30.8-82.3 6.1 71.9-11.8 4.8 1 5.6h36.8l1-5.6-11.8-4.8zM459.2 1225.9l-12.3 2.4-32.6 88-12.3 4.7.9 5.7h32.2l.9-5.7-14.7-4.7 8-22.7h36.9l8 22.7-12.2 4.7.9 5.7h38.3l.9-5.7-12.3-4.7-30.6-90.4zm-27 61.9l18.4-48.7v7.1l14.2 41.1h-32.6v.5zM579.8 1228.3l-1 6.1 11.9 4.7v66.2l-48.3-77h-26.9l-1 6.1 12.3 4.7v77.1l-12.3 4.8 1.4 5.6h28l.9-5.6-12.3-4.8V1241l55.8 88 8.5-2.4v-87.5l11.8-4.7-.9-6.1zM674.8 1225.9c-31.2 0-46.8 25.5-46.8 51.5s13.2 51.5 46.8 51.5c33.6 0 46.8-22.7 46.8-51.5.1-28.8-15.5-51.5-46.8-51.5zm0 96.5c-21.3 0-30.3-15.6-30.3-45.4 0-30.3 9.5-44 30.3-44s30.3 14.7 30.3 44c0 28.8-9 45.4-30.3 45.4zM758.1 1308.7c-6.1 0-10.9 4.7-10.9 10.9 0 2.8.9 5.2 2.8 7.6h4.7c0 10.9-6.6 25.1-16.1 32.2l4.3 4.3c9.9-6.1 25.5-24.6 25.5-44 .6-6.3-4.2-11-10.3-11zM913.2 1262.3h-9.5v8.5h9c27.4 0 52-10.4 52-41.6 0-26-15.1-43-44-43h-62.4l-1.4 8.5 17.5 6.6v110.2l-17.5 6.6 1.4 8.5h53l1.4-8.5-17.5-6.6v-116.8h18.4c21.8 0 30.3 14.7 30.3 34.5-.4 17-11.8 33.1-30.7 33.1zM1010.1 1293.5h36.9l8 22.7-12.3 4.7.9 5.7h38.3l.9-5.7-12.3-4.7-31.7-90.3-12.3 2.4-32.6 88-12.3 4.7.9 5.7h32.2l.9-5.7-14.7-4.7 9.2-22.8zm20.4-54.4v7.1l14.2 41.1H1012l18.5-48.2zM1096.2 1321l1 5.6h70.4v-26l-5.6-.9-8.1 21.3h-30.7v-43.6h17l4.3 11.9 6.1-1v-27.4l-6.1-1-4.3 11.9h-17v-37.4h30.2l5.7 16.1 6.2-1v-21.2h-68.1l-1.5 6.1 12.3 4.7v77.1zM1214.4 1322.4c-4.7 0-10.9-1.9-14.7-4.3l-7.1-18.4-5.7.9v20.3c7.1 5.2 17 8.5 28.4 8.5 24.6 0 35-11.3 35-26.5 0-16.1-12.3-24.1-27.4-31.7-8-4.3-23.6-10.4-23.6-20.3 0-9.5 6.1-17.5 18.9-17.5 5.7 0 9.9.9 14.7 2.4l6.6 18.9 5.7-.9v-18.9c-8-4.7-16.6-8.5-27.4-8.5-17.5 0-32.2 8-32.2 25.1 0 18.9 12.3 26 22.7 30.7 10.9 4.7 27.9 11.3 27.9 25.1 1.4 9.4-8 15.1-21.8 15.1zM1329.4 1321l.9 5.6h70.5v-26l-6.2-.9-7.5 21.3h-31.3v-43.6h17.5l4.3 11.9 5.7-1v-27.4l-5.7-1-4.3 11.9h-17.5v-37.4h30.8l5.7 16.1 5.6-1v-21.2h-68.1l-.9 6.1 12.3 4.7v77.1zM1594.7 1289.7l-8.5-1.4-10.4 28.4c-7.6 2.4-18.4 3.8-25.5 3.8-39.7 0-47.8-34-47.8-64.8 0-43 15.6-62.9 47.8-62.9 8 0 17.5 1.4 26 3.8l9.5 27 8.5-1.4v-27.4c-13.7-8-26-11.8-44-11.8-49.2 0-71.4 36.4-71.4 73.8s19.4 73.8 71.4 73.8c16.6 0 34-4.7 44-11.8V1290h.4zM1637.2 1293.5h36.9l8 22.7-12.3 4.7.9 5.7h38.3l.9-5.7-12.3-4.7-31.7-90.3-12.3 2.4-32.6 88-12.3 4.7.9 5.7h32.2l.9-5.7-14.7-4.7 9.2-22.8zm20.8-54.4v7.1l14.2 41.1h-32.6l18.4-48.2zM1776.3 1286.4l-7.1-3.8c15.6 0 29.8-10.4 29.8-27.4 0-16.6-9.9-27-30.3-27h-44.5l-.9 5.7 12.3 4.7v77.1l-11.8 4.7.9 5.7h36.9l.9-5.7-12.3-4.7v-81.8h12.8c15.1 0 21.3 8.5 21.3 21.3 0 9.9-8 21.3-21.3 21.3h-6.6v5.7l23.6 38.3-.9 5.7h26.5l.9-5.7-12.3-4.7-17.9-29.4zM1908.2 1228.3h-28.8l-1 6.1 12.3 4.7-26 72.9v-8.5l-23.2-64.4 12.3-4.7-1.4-6.1h-37.8l-1.4 6.1 12.3 4.7 33.1 89.9 7-2.4 31.3-87.5 12.3-4.7zM1964.5 1225.9l-12.3 2.4-32.6 88-12.3 4.7.9 5.7h32.2l.9-5.7-14.7-4.7 8-22.7h36.9l8 22.7-12.3 4.7.9 5.7h38.3l.9-5.7-12.3-4.7-30.5-90.4zm-27 61.9l18.4-48.7v7.1l14.2 41.1h-32.6v.5zM2078.9 1321h-30.7v-81.9l12.3-4.7-1-6.1h-37.3l-1 6.1 12.3 4.7v77.1l-12.3 4.8 1 5.6h70.4v-26l-5.6-.9zM2208.5 1234.4l-.9-6.1h-37.4l-.9 6.1 11.8 4.7v34.1h-47.3v-34.1l12.3-4.7-1-6.1h-37.3l-1 6.1 12.3 4.7v77.1l-12.3 4.8 1.5 5.6h36.8l1-5.6-12.3-4.8v-37.3h47.3v37.3l-11.8 4.8.9 5.6h36.9l.9-5.6-11.8-4.8v-77.1zM2276.6 1225.9c-31.2 0-46.8 25.5-46.8 51.5s13.2 51.5 46.8 51.5 46.8-22.7 46.8-51.5c-.4-28.8-16-51.5-46.8-51.5zm0 96.5c-21.3 0-30.3-15.6-30.3-45.4 0-30.3 9.5-44 30.3-44s30.3 14.7 30.3 44c0 28.8-9 45.4-30.3 45.4zM2488 1318.1h-43.5v-116.8l17.5-6.6-1.4-8.5h-53.5l-1.4 8.5 17.5 6.6v110.2l-17.5 6.6 1.4 8.5h100.8v-36.9l-8.5-1.4zM2567.9 1234.4l-.9-6.1h-37.4l-.9 6.1 12.3 4.7v77.1l-12.3 4.8.9 5.6h37.4l.9-5.6-12.3-4.8v-77.1zM2692.8 1239.1l12.3-4.7-1-6.1h-26l-31.2 83.2v-10.4l-25.1-72.8h-25l-1 6.1 11.9 4.7-8.1 77.1-12.3 4.8 1.4 5.6h27.9l1-5.6-11.8-4.8 7.1-68.5 27.4 81.3 7.1-2.4 30.7-82.3 6.6 71.9-12.3 4.8 1 5.6h37.3l1-5.6-12.3-4.8zM2814.3 1316.2l-31.7-90.3-12.3 2.4-32.6 88-12.3 4.7.9 5.7h32.2l.9-5.7-14.7-4.7 8-22.7h36.9l8 22.7-12.3 4.7.9 5.7h38.3l.9-5.7-11.1-4.8zm-58.6-28.4l18.4-48.7v7.1l14.2 41.1h-32.6v.5zM1069.3 1421.7l-8.5 1.4-22.2 60.5-8.5 3.3.5 4.3h22.2l.5-4.3-9.9-3.3 5.7-15.6h25.1l5.2 15.6-8.5 3.3.5 4.3h26.5l.9-4.3-8.5-3.3-21-61.9zm-19 42.1l12.8-33.1v4.7l9.9 28.4h-22.7zM1149.7 1423.1h-26.5l-.5 4.3 8.5 3.3v53l-8.5 3.3.5 4.3h26c24.1 0 35.5-15.6 35.5-34.5.4-19-10.9-33.7-35-33.7zm0 63.8h-8.5v-59.6h8.5c16.6 0 24.1 12.8 24.1 28.8s-7.6 30.8-24.1 30.8zM1250.4 1423.1l-1 4.3 8.6 3.3-17.5 49.6v-5.7l-16.1-43.9 8-3.3-.5-4.3h-26.4l-1 4.3 8.5 3.3 22.7 61.9 5.2-1.9 21.3-60 8.5-3.3-.9-4.3zM1326.5 1421.7c-21.8 0-32.2 17.5-32.2 35.5s9 35.5 32.2 35.5c23.2 0 32.2-15.6 32.2-35.5 0-20.4-10.4-35.5-32.2-35.5zm0 66.2c-14.7 0-20.8-10.9-20.8-31.2 0-20.8 6.1-30.3 20.8-30.3 14.2 0 20.8 9.9 20.8 30.3.5 19.8-6.1 31.2-20.8 31.2zM1425.8 1459l-.5 4.3 8.5 3.3v19.9c-3.8.9-8 1.4-10.9 1.4-18.9 0-24.1-16.6-24.1-31.2 0-15.6 6.6-30.3 24.1-30.3 3.8 0 8.5.5 12.8 1.9l4.7 12.8 4.3-.5v-13.2c-6.6-3.8-12.8-5.7-21.3-5.7-21.8 0-35.5 15.6-35.5 35.5 0 18 10.4 35.5 35.5 35.5 8 0 16.6-2.4 21.3-5.7v-20.3l8.5-3.3-.9-4.3-26.5-.1zM1514.7 1421.7l-8.5 1.4-22.2 60.5-8.5 3.3.5 4.3h22.2l.5-4.3-9.9-3.3 5.7-15.6h25.1l5.2 15.6-8.5 3.3.5 4.3h26.5l.9-4.3-8.5-3.3-21-61.9zm-18.4 42.1l12.8-33.1v4.7l9.9 28.4h-22.7zM1595.1 1423.1h-26.5l-.5 4.3 8.5 3.3v53l-8.5 3.3.5 4.3h26c24.1 0 35.5-15.6 35.5-34.5.5-19-10.8-33.7-35-33.7zm0 63.8h-8.5v-59.6h8.5c16.6 0 24.1 12.8 24.1 28.8s-7.5 30.8-24.1 30.8zM1690.7 1421.7c-21.8 0-32.2 17.5-32.2 35.5s9 35.5 32.2 35.5c23.2 0 32.2-15.6 32.2-35.5-.1-20.4-10.5-35.5-32.2-35.5zm0 66.2c-14.7 0-20.8-10.9-20.8-31.2 0-20.8 6.6-30.3 20.8-30.3 14.2 0 20.8 9.9 20.8 30.3 0 19.8-6.2 31.2-20.8 31.2zM1778.2 1452.4c-5.7-2.8-16.1-7.1-16.1-14.2 0-6.6 4.3-11.8 12.8-11.8 3.8 0 7.1.5 10.4 1.9l4.7 13.2 4.3-.5v-13.2c-5.2-3.3-11.3-5.7-18.9-5.7-12.3 0-22.2 5.7-22.2 17.5 0 13.2 8.5 18 15.6 21.3 7.6 3.3 19.4 8 19.4 17 0 6.6-6.6 10.4-16.1 10.4-3.3 0-7.6-1.4-9.9-2.8l-4.7-12.8-4.3.5v13.7c4.7 3.3 11.8 5.7 19.9 5.7 17 0 24.1-7.6 24.1-18.4-.1-11.4-8.6-16.6-19-21.8zM1848.2 1460l12.2 12.8 12.3-12.8-12.3-12.3zM962.4 1460.5l12.7 12.3 12.3-12.3-12.3-12.8z"/></svg>