<svg xmlns="http://www.w3.org/2000/svg" viewBox="382 217.1 2070.6 1720.1"><path fill="#FFF" class="fill" d="M1417.094 357.228l721.525 721.525-721.526 721.525-721.525-721.525z"/><path fill="none" stroke="#000" stroke-width="2.9999700000000002" stroke-miterlimit="10" d="M1417.157 229.683l848.732 848.732-848.733 848.733-848.732-848.733z"/><g fill="none" stroke="#000" stroke-width="3" stroke-miterlimit="10"><path d="M1192.382 843.274l188.442-188.443 94.256 94.258-188.442 188.442z" stroke-width="2.9999700000000002"/><path d="M1865.7 1250.6l-8.1 69.4-69.4 8.6-425.6-467.1 36-36zM1653.9 1116.8l102.9 102.9M1151.3 843.7l134.8 134.8M1122.4 850.8l156.1 156.6M1515.6 749l-134.8-135.3M1544.5 741.4l-156.1-156.1"/></g><path fill="none" stroke="#000" stroke-width="3" stroke-miterlimit="10" d="M837.7 1347.9h839M1157.4 1270.8h230l1.6 39.6h-345.6v-39.6h69.4v-32.9H1320v32.9"/></svg>