<svg xmlns="http://www.w3.org/2000/svg" viewBox="234 221 2366.6 1712.3"><path fill="#FFF" class="fill" d="M1391.59 348.248l721.525 721.525-721.525 721.525-721.525-721.525z"/><g fill="none" stroke="#000" stroke-width="3" stroke-miterlimit="10"><circle cx="1391.5" cy="517.4" r="63.8"/><path d="M1391.252 220.978l848.733 848.733-848.733 848.733L542.52 1069.71z" stroke-width="2.9999700000000002"/><path d="M1404.7 597.4l11.1 181.9-24.3 17.7-24.3-17.7 11.1-181.9"/><path d="M1477.1 861.9l48.7-225-134.3-46.6-134.8 46.6 49.2 225z"/><circle cx="1156.9" cy="1058" r="63.8"/><path d="M1242.5 1403l49.2-225.4-134.8-46.2-134.3 46.2 49.2 225.4z"/><circle cx="1627.1" cy="1058" r="63.8"/><path d="M1712.7 1403l49.2-225.4-134.8-46.2-134.3 46.2L1542 1403zM1352.5 926.8h78v538.1h-78zM1352.5 1459.8l78-61.9M1352.5 1393.9l78-62.3M1352.5 1327.5l78-61.8M1352.5 1261.7l78-62.4M1352.5 1195.3l78-61.8M1352.5 1129.4l78-62.3M1352.5 1063l78-61.8M1352.5 997.2l78-62.3"/></g></svg>