<svg xmlns="http://www.w3.org/2000/svg" viewBox="166 209 2502.6 1736.3"><path fill="#FFF" class="fill" d="M1417.395 358.192l721.525 721.525-721.525 721.525-721.525-721.525z"/><g fill="none" stroke="#000" stroke-width="3" stroke-miterlimit="10"><circle cx="1316" cy="711.9" r="63.8"/><circle cx="1529.8" cy="711.9" r="63.8"/><circle cx="1689.4" cy="1059.4" r="43.1"/><path d="M1625.6 1221.1l-47.7.5-16.7 213.3"/><path d="M1498.4 1434.9l-16.2-211.8-114.5 1.5 81.5-398.2 80.6-46.1 80.1 46.1 42.5 208.7M1381.4 1224.6l-13.7 210.3"/><path d="M1181.2 959.6V826.4l134.8-46.1 134.3 46.1M1264.3 1434.9l-18.7-291.9h-32.5M1666.6 1434.9l-41-150.5v-142.9l63.8-33.9 63.3 33.9v142.9l-41 150.5"/><circle cx="1145.8" cy="989" r="46.1"/><path d="M1121.9 1434.9l-43.5-159.6v-199.7l67.4-35.9 67.3 35.9v199.7l-43.5 159.6"/><path d="M1417.316 230.606l848.732 848.732-848.732 848.732-848.732-848.732z" stroke-width="2.9999700000000002"/><path d="M923.8 1434.9h934.8"/></g></svg>