<svg xmlns="http://www.w3.org/2000/svg" viewBox="126 205 2582.6 1744.3"><path class="fill" fill="#EDEDED" d="M1424.634 357.664l721.525 721.525-721.526 721.524L703.11 1079.19z"/><path fill="none" stroke="#000" stroke-width="2.9999700000000002" stroke-miterlimit="10" d="M1424.226 230.424l848.732 848.732-848.732 848.732-848.732-848.732z"/><path fill="none" stroke="#000" stroke-width="3" stroke-miterlimit="10" d="M847.8 1348.7h980.4M1022.1 978.9l402.3-322.3 403.8 322.3"/><path fill="none" stroke="#000" stroke-width="3" stroke-miterlimit="10" d="M1771 933.3V1295h-693.1V933.3"/><path fill="none" stroke="#000" stroke-width="3" stroke-miterlimit="10" d="M1343.9 991h161.6v194.1h-161.6zM1353 985.5c-11.7-37.5 9.1-77 46.6-88.2 37.5-11.1 77 9.1 88.2 46.6"/><path fill="none" stroke="#000" stroke-width="3" stroke-miterlimit="10" d="M1447.7 1057.4c0-14.2-11.1-25.3-25.3-25.3s-25.3 11.1-25.3 25.3c0 9.6 5.1 17.7 12.7 21.8-2.5 17.7-10.1 67.4-10.1 67.4h45.1s-8.1-49.1-10.6-66.9c8-4.1 13.5-12.7 13.5-22.3z"/></svg>