<svg xmlns="http://www.w3.org/2000/svg" viewBox="177.7 205.1 2479.3 1744.1"><path class="fill" fill="#FFF" d="M1420.277 362.27l721.525 721.524-721.525 721.525-721.524-721.526z"/><path fill="none" stroke="#000" stroke-width="2.9999700000000002" stroke-miterlimit="10" d="M1420.34 234.725l848.732 848.732-848.732 848.732-848.732-848.733z"/><g fill="none" stroke="#000" stroke-width="3" stroke-miterlimit="10"><path d="M921.3 933.3h304.5l134.3-82.1 240.6 49.6-35.9 57.8-176.9-9.6-178.8 133.7 90.2 34.5 110.9-62.3H1620"/><path d="M1582 930.7h337.4v311.1h-130.7V958.6"/><path d="M1781.6 1189.6H1733l-71 44.1"/><path d="M1542 1054.9l163.1 239.1-65.4 19.3-103.8-82.6"/><path d="M1607.8 1287.9c-.5-1-161.6 79-161.6 79h-101.3l-233.1-167.7h-55.7M1055.6 963.7v278.1H921.3V933.3h134.3"/></g><path fill="none" stroke="#000" stroke-width="3" stroke-miterlimit="10" d="M1808.5 1272.2h129.7M951.2 1272.2h129.2"/></svg>