<svg xmlns="http://www.w3.org/2000/svg" viewBox="201.7 223.1 2431.3 1708.1"><path class="fill" fill="#EDEDED" d="M1463.397 353.32l721.525 721.525-721.525 721.524-721.524-721.525z"/><path fill="none" stroke="#000" stroke-width="2.9999700000000002" stroke-miterlimit="10" d="M1463.13 226.12l848.733 848.733-848.732 848.732L614.4 1074.853z"/><path fill="none" stroke="#000" stroke-width="3" stroke-miterlimit="10" d="M1612.9 630.9h151v877.5h-601.4V630.9h182.9"/><path fill="none" stroke="#000" stroke-width="3" stroke-miterlimit="10" d="M1509.5 609.1v-1c0-25.3-20.8-46.1-46.1-46.1s-46.1 20.8-46.1 46.1v1h-71.4v70.4h235.6v-70.4h-72zM1462.9 921.2v283.2M1387.9 1204.4h150.5M1566.8 1236.3h-207.2M1232.4 1087.4h171.8l-18.3 37h-135.3zM1345.4 1274.3H1581M1308.4 894.8H1618M1404.2 1087.4l-85.7-195.6M1318.5 891.8l-86.1 195.6M1522.2 1087.4H1694l-18.3 37h-135.3zM1694 1087.4l-86.2-195.6M1607.8 891.8l-85.6 195.6M1345.4 653.2h193M1489.3 894.8c0 14.2-11.7 26.3-26.3 26.3-14.7 0-26.3-11.7-26.3-26.3"/></svg>