<svg xmlns="http://www.w3.org/2000/svg" viewBox="168.7 205.1 2497.3 1744.1"><path class="fill" fill="#EDEDED" d="M1417.395 365.833l721.525 721.525-721.525 721.525-721.525-721.525z"/><path fill="none" stroke="#000" stroke-width="2.9999700000000002" stroke-miterlimit="10" d="M1417.057 238.564l848.732 848.732-848.733 848.732-848.732-848.732z"/><path fill="none" stroke="#000" stroke-width="3" stroke-miterlimit="10" d="M1261.3 1318.8h-164.2V685.5h416v475.8M1097.1 861.3h375.5"/><g fill="none" stroke="#000" stroke-width="3" stroke-miterlimit="10"><path d="M1157.4 948h61.8v61.8h-61.8zM1273.9 948h61.8v61.8h-61.8zM1391 948h61.8v61.8H1391z"/></g><g fill="none" stroke="#000" stroke-width="3" stroke-miterlimit="10"><path d="M1157.4 1061h61.8v61.8h-61.8zM1273.9 1061h61.8v61.8h-61.8zM1391 1061h61.8v61.8H1391z"/></g><path fill="none" stroke="#000" stroke-width="3" stroke-miterlimit="10" d="M1157.4 1173.4h61.8v61.8h-61.8z"/><g fill="none" stroke="#000" stroke-miterlimit="10"><g stroke-width="3"><path d="M1261.3 1161.3h453v235.6h-453z"/><path d="M1749.2 1195.7v235.6h-453.5"/><path d="M1783.6 1230.2v235.6h-453.4"/></g><circle stroke-width="3" cx="1488.3" cy="1278.8" r="84.1"/><path stroke-width="12" d="M1520.7 1299.1c0-17.7-13.2-25.3-25.3-30.4l-6.6-3c-6.1-2.5-13.2-6.1-13.2-12.2 0-6.6 5.6-11.7 12.7-11.7 6.1 0 10.1 2.5 13.7 8.6l2 3 14.7-9.1-1.5-3c-4.6-8.6-12.2-14.2-20.8-16.2v-15.7h-15.2v15.7c-13.7 3-22.8 13.7-22.8 27.4 0 16.2 12.2 22.8 23.3 28.4l6.6 2.5c9.6 4.6 15.2 7.6 15.2 15.7 0 8.6-7.6 15.2-16.2 15.2-8.1 0-14.7-6.1-16.2-15.2l-.5-4.1-17.7 5.1.5 3c3 15.2 13.7 25.3 27.9 27.4v15.2h15.2v-16.2c13.5-1.5 24.2-14.7 24.2-30.4z"/></g><path fill="none" stroke="#000" stroke-width="3" stroke-miterlimit="10" d="M1261.3 1349.2h-145.9M1543.5 733.6v427.7"/></svg>